<svg width="295" height="374" viewBox="0 0 295 374" fill="none" xmlns="http://www.w3.org/2000/svg">
<g clip-path="url(#clip0_2078_7329)">
<path d="M129.44 166.386C138.266 147.244 92.7814 121.173 83.8424 126.63C79.3726 129.358 92.1704 136.812 113.26 135.464C182.393 131.047 204.457 89.8188 179.452 136.937" stroke="#2C2929" stroke-width="3" stroke-linecap="round"/>
<path d="M125.028 184.055C175.394 184.055 216.224 143.183 216.224 92.7638C216.224 42.3449 175.394 1.47241 125.028 1.47241C74.6612 1.47241 33.8311 42.3449 33.8311 92.7638C33.8311 143.183 74.6612 184.055 125.028 184.055Z" stroke="#2C2929" stroke-width="3"/>
<path d="M150.033 64.7874C148.691 68.9944 147.127 74.4704 146.008 83.7188C144.893 92.9351 143.324 100.547 144.666 108.961" stroke="#2C2929" stroke-width="15" stroke-linecap="round"/>
<path d="M84.955 70.1226C83.5456 73.556 81.6449 84.9586 81.6449 84.9586C81.6449 84.9586 80.0501 97.8728 83.2944 103.51" stroke="#2C2929" stroke-width="15" stroke-linecap="round"/>
<path d="M189.748 185.528C195.474 193.175 199.82 206.101 202.811 213.443C205.801 220.785 207.991 232.531 202.811 242.81C198.594 251.176 193.913 257.561 184.866 260.43C174.076 263.852 164.647 261.81 154.959 256.025C146.837 251.175 142.308 246.158 137.015 238.405C131.632 230.521 126.253 218.153 123.557 209.038" fill="#6E4FC8"/>
<path d="M189.748 185.528C195.474 193.175 199.82 206.101 202.811 213.443C205.801 220.785 207.991 232.531 202.811 242.81C198.594 251.176 193.913 257.561 184.866 260.43C174.076 263.852 164.647 261.81 154.959 256.025C146.837 251.175 142.308 246.158 137.015 238.405C131.632 230.521 126.253 218.153 123.557 209.038" stroke="#2C2929" stroke-width="3" stroke-linecap="round" stroke-linejoin="round"/>
<path d="M192.69 356.331C186.832 356.328 177.98 359.275 177.98 359.275L230.933 371.055C230.933 371.055 208.157 356.339 192.69 356.331Z" fill="#2C2929"/>
<path d="M192.69 259.149L177.98 359.275M177.98 359.275C177.98 359.275 186.832 356.328 192.69 356.331C208.157 356.339 230.933 371.055 230.933 371.055L177.98 359.275Z" stroke="#2C2929" stroke-width="3" stroke-linecap="round" stroke-linejoin="round"/>
<path d="M154.446 356.331C160.304 356.328 169.155 359.275 169.155 359.275L116.202 371.055C116.202 371.055 138.979 356.339 154.446 356.331Z" fill="#2C2929"/>
<path d="M189.748 161.969C189.748 167.859 189.748 187 189.748 187C186.806 190.927 179.451 200.252 161.8 207.614C144.149 214.977 123.557 207.614 123.557 207.614L102.964 181.11" fill="#6E4FC8"/>
<path d="M189.748 161.969C189.748 167.859 189.748 187 189.748 187C186.806 190.927 179.451 200.252 161.8 207.614C144.149 214.977 123.557 207.614 123.557 207.614L102.964 181.11" stroke="#2C2929" stroke-width="3" stroke-linecap="round" stroke-linejoin="round"/>
<path d="M158.859 257.677L169.155 359.276M169.155 359.276C169.155 359.276 160.304 356.328 154.446 356.331C138.979 356.34 116.202 371.055 116.202 371.055L169.155 359.276Z" stroke="#2C2929" stroke-width="3" stroke-linecap="round" stroke-linejoin="round"/>
<path d="M185.899 159.336C185.26 159.838 185.147 160.763 185.648 161.403C186.148 162.044 187.073 162.157 187.713 161.655L185.899 159.336ZM253.091 247.65C253.318 248.431 254.135 248.879 254.914 248.652C255.694 248.424 256.143 247.607 255.915 246.826L253.091 247.65ZM207.479 221.078L206.586 219.907C206.08 220.294 205.88 220.963 206.091 221.565C206.301 222.167 206.875 222.564 207.512 222.55L207.479 221.078ZM187.713 161.655C192.53 157.881 200.974 155.551 210.46 155.05C219.898 154.551 230.079 155.879 238.203 159.143C246.363 162.422 252.129 167.505 253.438 174.34C254.751 181.2 251.703 190.467 240.668 202.415L242.828 204.414C254.088 192.223 257.905 182.03 256.327 173.786C254.744 165.516 247.864 159.851 239.299 156.41C230.698 152.955 220.074 151.593 210.305 152.109C200.584 152.623 191.418 155.013 185.899 159.336L187.713 161.655ZM240.668 202.415C235.796 207.69 228.28 211.408 221.415 214.129C218 215.482 214.81 216.565 212.23 217.475C210.949 217.927 209.804 218.342 208.875 218.723C207.983 219.088 207.149 219.478 206.586 219.907L208.371 222.248C208.592 222.08 209.097 221.814 209.99 221.448C210.844 221.098 211.927 220.704 213.208 220.253C215.75 219.356 219.015 218.247 222.498 216.867C229.43 214.12 237.481 210.204 242.828 204.414L240.668 202.415ZM207.512 222.55C218.569 222.296 229.325 226.241 237.689 231.498C241.866 234.122 245.412 237.053 248.076 239.907C250.762 242.785 252.462 245.491 253.091 247.65L255.915 246.826C255.104 244.038 253.06 240.934 250.225 237.897C247.369 234.837 243.62 231.748 239.254 229.004C230.533 223.524 219.217 219.336 207.445 219.606L207.512 222.55Z" fill="#2C2929"/>
<path d="M263.275 224.061C227.892 209.171 205.401 221.367 205.401 221.367C205.401 221.367 215.652 232.705 227.913 237.819" stroke="#2C2929" stroke-width="3" stroke-linecap="round" stroke-linejoin="round"/>
<path d="M168.1 249.552C198.571 244.349 196.637 203.197 196.637 203.197C196.637 203.197 184.257 225.641 173.743 227.523" fill="#522EBA"/>
<path d="M168.1 249.552C198.571 244.349 196.637 203.197 196.637 203.197C196.637 203.197 184.257 225.641 173.743 227.523" stroke="#2C2929" stroke-width="3" stroke-linecap="round" stroke-linejoin="round"/>
<path d="M94.1387 58.8977C86.7842 58.8977 83.5481 59.4163 72.5654 52.5862C61.5824 45.7564 54.9144 30.3891 52.9531 23.5591" stroke="#2C2929" stroke-width="3" stroke-linecap="round" stroke-linejoin="round"/>
<path d="M138.619 29.4663C141.183 24.9896 149.37 18.0354 161.61 26.0324C173.849 34.0294 182.061 53.0869 184.637 61.6161" stroke="#2C2929" stroke-width="3" stroke-linecap="round" stroke-linejoin="round"/>
<path d="M102.246 182.471C99.6409 199.882 83.5649 237.22 59.5802 237.736C40.0465 238.157 19.5885 227.396 13.2378 203.197C6.96036 179.276 25.0052 141.354 58.9271 145.517C72.5425 147.188 84.4822 158.228 85.3127 173.118C85.9199 184.004 63.2893 205.099 52.3783 195.835C41.4671 186.57 46.5741 174.26 51.4816 173.118C54.5041 172.414 67.6617 175.22 65.0291 186.724" stroke="#2C2929" stroke-width="3" stroke-linecap="round" stroke-linejoin="round"/>
<path d="M106.474 178.804C106.96 180.142 108.333 181.345 110.938 182.179C113.519 183.005 117.053 183.377 121.342 183.238C129.902 182.959 141.13 180.653 152.964 176.347C164.797 172.041 174.883 166.59 181.624 161.301C185.001 158.651 187.471 156.094 188.919 153.802C190.381 151.488 190.662 149.682 190.177 148.345C189.691 147.007 188.317 145.805 185.712 144.97C183.131 144.144 179.598 143.772 175.309 143.911C166.748 144.19 155.521 146.496 143.687 150.802C131.853 155.108 121.768 160.559 115.027 165.848C111.649 168.498 109.179 171.055 107.731 173.347C106.269 175.662 105.988 177.467 106.474 178.804Z" fill="#D9D9D9" stroke="black" stroke-opacity="0.45" stroke-width="3" stroke-linejoin="round"/>
<path d="M129.384 168.115C129.484 168.391 129.833 168.822 130.916 169.168C131.974 169.507 133.487 169.676 135.398 169.614C139.203 169.49 144.246 168.46 149.594 166.515C154.942 164.569 159.468 162.115 162.464 159.765C163.969 158.584 165.02 157.481 165.614 156.541C166.221 155.58 166.213 155.025 166.113 154.75C166.013 154.474 165.664 154.044 164.581 153.697C163.523 153.358 162.01 153.189 160.099 153.251C156.294 153.375 151.251 154.404 145.903 156.351C140.555 158.297 136.029 160.75 133.033 163.101C131.528 164.281 130.477 165.384 129.883 166.324C129.276 167.285 129.284 167.84 129.384 168.115Z" stroke="black" stroke-opacity="0.45" stroke-width="3" stroke-linejoin="round"/>
<g style="mix-blend-mode:multiply" opacity="0.5">
<path d="M129.44 167.858C170.058 167.858 202.986 134.897 202.986 94.2363C202.986 53.576 170.058 20.6143 129.44 20.6143C88.8221 20.6143 55.8945 53.576 55.8945 94.2363C55.8945 134.897 88.8221 167.858 129.44 167.858Z" fill="#F9F913"/>
</g>
</g>
<defs>
<clipPath id="clip0_2078_7329">
<rect width="294.183" height="374" fill="white"/>
</clipPath>
</defs>
</svg>
