<svg width="268" height="67" viewBox="0 0 268 67" fill="none" xmlns="http://www.w3.org/2000/svg">
<path d="M60.6963 64.0621C58.9234 65.7189 56.173 65.7283 54.3889 64.0837L41.3363 52.0516C40.8405 51.5559 36.9256 54.8608 34.3579 55.7505C31.8157 56.6403 29.1337 57.0852 26.3118 57.0852C22.7019 57.0852 19.3081 56.3734 16.1303 54.9498C12.9525 53.5007 10.1561 51.5178 7.74102 49.001C5.32592 46.4588 3.43198 43.5098 2.05919 40.1541C0.686396 36.7984 0 33.2139 0 29.4006C0 25.5873 0.686396 22.0155 2.05919 18.6852C3.43198 15.3295 5.32592 12.3805 7.74102 9.83829C10.1561 7.29609 12.9525 5.31317 16.1303 3.88953C19.3081 2.44047 22.7019 1.71595 26.3118 1.71595C29.9472 1.71595 33.3538 2.44047 36.5315 3.88953C39.7093 5.31317 42.5057 7.29609 44.9208 9.83829C47.3359 12.3805 49.2171 15.3295 50.5645 18.6852C51.9373 22.0155 52.6237 25.5873 52.6237 29.4006C52.6237 32.375 52.1915 35.2095 51.3272 37.9043C50.4628 40.5736 46.999 44.4059 47.7808 45.3021L60.6845 57.2768C62.6564 59.1068 62.6618 62.2254 60.6963 64.0621ZM26.3118 47.7807C27.7863 47.7807 29.2354 47.5646 30.659 47.1325C32.0826 46.6749 34.856 44.9136 36.0477 43.7219C36.0477 43.7219 38.4068 41.2013 39.3248 40.147C39.9253 39.4572 40.8405 38.3619 40.8405 38.3619C41.6541 37.0399 42.2642 35.6163 42.6709 34.091C43.1031 32.5656 43.3192 31.0022 43.3192 29.4006C43.3192 26.8584 42.8743 24.4814 41.9845 22.2697C41.0948 20.058 39.8618 18.1132 38.2856 16.4353C36.7349 14.732 34.9299 13.4101 32.8707 12.4695C30.837 11.5034 28.6507 11.0204 26.3118 11.0204C23.973 11.0204 21.774 11.5034 19.7148 12.4695C17.6556 13.4355 15.8379 14.7702 14.2618 16.4735C12.711 18.1513 11.4908 20.0961 10.601 22.3078C9.73665 24.5195 9.30448 26.8838 9.30448 29.4006C9.30448 31.9174 9.74936 34.2943 10.6391 36.5315C11.5289 38.7432 12.7492 40.7007 14.2999 42.404C15.8761 44.0818 17.681 45.4038 19.7148 46.3698C21.774 47.3104 23.973 47.7807 26.3118 47.7807Z" fill="#373737"/>
<path d="M58.013 35.9976V13.1655C58.013 12.5073 58.5465 11.9738 59.2046 11.9738H66.1258C66.7839 11.9738 67.3174 12.5073 67.3174 13.1655V33.5571C67.3174 35.057 67.686 36.4298 68.4233 37.6755C69.1605 38.8958 70.1393 39.8745 71.3596 40.6118C72.6052 41.3236 73.9653 41.6795 75.4398 41.6795C76.9651 41.6795 78.3379 41.3236 79.5582 40.6118C80.7785 39.8745 81.7572 38.8958 82.4944 37.6755C83.2317 36.4298 83.6003 35.057 83.6003 33.5571V19.1238C83.6003 15.1749 86.8014 11.9738 90.7503 11.9738H91.7143C92.372 11.9738 92.9053 12.5066 92.906 13.1643L92.9417 48.914C92.9424 49.5726 92.4087 50.1069 91.7501 50.1069H84.6723C84.1497 50.1069 83.7684 49.6124 83.9012 49.1069C84.1101 48.3123 82.9698 47.5906 82.2832 48.042C81.1444 48.7907 79.9009 49.4696 78.9099 49.9162C77.105 50.7043 75.1729 51.0984 73.1137 51.0984C70.3427 51.0984 67.8132 50.4247 65.5252 49.0773C63.2372 47.7045 61.4068 45.8868 60.034 43.6243C58.6866 41.3363 58.013 38.7941 58.013 35.9976Z" fill="#373737"/>
<path d="M116.759 51.0984C113.251 51.0984 110.047 50.1959 107.149 48.3909C104.277 46.5859 101.976 44.1581 100.247 41.1075C98.5439 38.0568 97.6923 34.6884 97.6923 31.0022C97.6923 28.2312 98.188 25.6382 99.1795 23.2231C100.171 20.7825 101.531 18.6471 103.26 16.8167C105.014 14.9609 107.048 13.5118 109.361 12.4695C111.674 11.4272 114.14 10.9061 116.759 10.9061C119.733 10.9061 122.453 11.5416 124.919 12.8127C127.411 14.0584 129.521 15.7744 131.249 17.9607C132.978 20.147 134.236 22.6383 135.025 25.4348C135.724 27.9158 135.943 30.4968 135.681 33.1779C135.624 33.7687 135.117 34.2054 134.524 34.2054H108.875C108.217 34.2054 107.723 34.7439 107.958 35.3587C108.297 36.2454 108.895 37.2945 109.437 38.0568C110.251 39.1754 111.28 40.0779 112.526 40.7643C113.772 41.4253 115.183 41.7685 116.759 41.7939C118.386 41.8193 119.86 41.438 121.182 40.6499C123.614 39.1819 126.382 37.7999 129.148 38.4442L133.816 39.5316C133.928 39.5577 133.988 39.6803 133.939 39.7845C132.389 43.074 130.107 45.7776 127.093 47.8952C124.017 50.0306 120.572 51.0984 116.759 51.0984ZM107.774 25.8099C107.523 26.5254 108.092 27.227 108.85 27.227H124.71C125.454 27.227 126.021 26.5488 125.785 25.843C125.456 24.8594 124.977 23.9479 124.347 23.1087C123.458 21.863 122.352 20.8715 121.03 20.1343C119.708 19.397 118.284 19.0284 116.759 19.0284C115.233 19.0284 113.823 19.397 112.526 20.1343C111.23 20.8461 110.124 21.8248 109.208 23.0705C108.599 23.9061 108.121 24.8193 107.774 25.8099Z" fill="#373737"/>
<path d="M153.31 50.7933C151.327 50.6662 149.408 50.2721 147.552 49.6112C145.722 48.9248 144.094 47.9969 142.671 46.8274C141.3 45.7011 140.235 44.3624 139.477 42.8116C139.429 42.7142 139.474 42.5975 139.574 42.555L145.203 40.1504C146.374 39.6499 147.764 40.0908 148.734 40.9168C149.42 41.4761 150.234 41.9464 151.175 42.3277C152.141 42.7091 153.196 42.8997 154.34 42.8997C155.306 42.8997 156.221 42.7726 157.085 42.5184C157.975 42.2388 158.687 41.8193 159.221 41.26C159.78 40.7007 160.06 39.9762 160.06 39.0864C160.06 38.1458 159.729 37.4213 159.068 36.9128C158.433 36.379 157.619 35.9849 156.628 35.7307C155.662 35.4511 154.721 35.1969 153.806 34.9681C151.391 34.485 149.141 33.7351 147.056 32.7182C144.997 31.7013 143.332 30.3921 142.061 28.7905C140.815 27.1635 140.192 25.206 140.192 22.918C140.192 20.4012 140.853 18.2276 142.175 16.3972C143.522 14.5668 145.264 13.1559 147.399 12.1645C149.56 11.173 151.886 10.6773 154.378 10.6773C157.403 10.6773 160.174 11.3128 162.691 12.5839C165.179 13.8031 167.156 15.5216 168.621 17.7393C168.673 17.8182 168.648 17.9244 168.567 17.9725L163.298 21.0848C162.227 21.7172 160.84 21.3304 159.869 20.5537C159.233 20.0199 158.509 19.5877 157.695 19.2572C156.882 18.9013 156.03 18.6979 155.14 18.6471C153.996 18.5962 152.954 18.6979 152.013 18.9521C151.073 19.2064 150.31 19.6385 149.725 20.2487C149.166 20.8588 148.887 21.6723 148.887 22.6892C148.887 23.6552 149.268 24.3798 150.031 24.8628C150.793 25.3204 151.708 25.6763 152.776 25.9305C153.869 26.1847 154.912 26.4644 155.903 26.7694C158.14 27.5067 160.238 28.4092 162.195 29.4769C164.178 30.5446 165.767 31.8538 166.962 33.4046C168.156 34.9553 168.729 36.8111 168.678 38.972C168.678 41.438 167.94 43.5988 166.466 45.4547C164.991 47.285 163.085 48.6833 160.746 49.6493C158.433 50.6153 155.954 50.9967 153.31 50.7933Z" fill="#373737"/>
<path d="M195.643 20.0866C195.643 20.7447 195.11 21.2783 194.451 21.2783H189.437C188.779 21.2783 188.245 21.8118 188.245 22.4699V48.9152C188.245 49.5734 187.712 50.1069 187.054 50.1069H180.132C179.474 50.1069 178.941 49.5734 178.941 48.9152V22.4699C178.941 21.8118 178.407 21.2783 177.749 21.2783H174.489C173.831 21.2783 173.297 20.7447 173.297 20.0866V13.1655C173.297 12.5073 173.831 11.9738 174.489 11.9738H177.749C178.407 11.9738 178.941 11.4403 178.941 10.7821V1.19166C178.941 0.533525 179.474 0 180.132 0H187.054C187.712 0 188.245 0.533524 188.245 1.19166V10.7821C188.245 11.4403 188.779 11.9738 189.437 11.9738H194.451C195.11 11.9738 195.643 12.5073 195.643 13.1655V20.0866Z" fill="#373737"/>
<path d="M218.422 51.0984C214.914 51.0984 211.711 50.1959 208.813 48.3909C205.94 46.5859 203.639 44.1581 201.911 41.1075C200.207 38.0568 199.356 34.6884 199.356 31.0022C199.356 28.2312 199.851 25.6382 200.843 23.2231C201.834 20.7825 203.194 18.6471 204.923 16.8167C206.677 14.9609 208.711 13.5118 211.024 12.4695C213.338 11.4272 215.804 10.9061 218.422 10.9061C221.397 10.9061 224.117 11.5416 226.583 12.8127C229.074 14.0584 231.184 15.7744 232.913 17.9607C234.642 20.147 235.9 22.6383 236.688 25.4348C237.387 27.9158 237.606 30.4968 237.345 33.1779C237.287 33.7687 236.781 34.2054 236.187 34.2054H210.873C210.098 34.2054 209.526 34.9369 209.808 35.6591C210.143 36.5169 210.574 37.3162 211.101 38.0568C211.914 39.1754 212.944 40.0779 214.189 40.7643C215.435 41.4253 216.846 41.7685 218.422 41.7939C220.049 41.8193 221.524 41.438 222.846 40.6499C225.277 39.1819 228.045 37.7999 230.811 38.4442L235.377 39.5076C235.542 39.5461 235.63 39.7266 235.557 39.8797C234.009 43.1262 231.742 45.798 228.756 47.8952C225.68 50.0306 222.236 51.0984 218.422 51.0984ZM209.437 25.8099C209.187 26.5254 209.756 27.227 210.514 27.227H226.373C227.117 27.227 227.684 26.5488 227.448 25.843C227.119 24.8594 226.64 23.9479 226.011 23.1087C225.121 21.863 224.015 20.8715 222.693 20.1343C221.371 19.397 219.948 19.0284 218.422 19.0284C216.897 19.0284 215.486 19.397 214.189 20.1343C212.893 20.8461 211.787 21.8248 210.872 23.0705C210.263 23.9061 209.784 24.8193 209.437 25.8099Z" fill="#373737"/>
<path d="M244.655 50.1069C243.997 50.1069 243.464 49.5741 243.463 48.9164L243.427 13.1666C243.427 12.508 243.961 11.9738 244.619 11.9738H251.762C252.299 11.9738 252.736 12.4059 252.742 12.9427C252.752 13.824 253.872 14.2847 254.581 13.7603C255.445 13.1205 256.392 12.5759 257.421 12.1263C259.226 11.3128 261.171 10.9061 263.255 10.9061C264.585 10.9061 265.914 11.0899 267.244 11.4576C267.355 11.4883 267.414 11.6087 267.372 11.7161L264.87 18.1286C264.274 19.6558 262.531 20.3249 260.891 20.3249C259.391 20.3249 258.019 20.6936 256.773 21.4308C255.553 22.1426 254.574 23.1214 253.837 24.3671C253.125 25.5873 252.769 26.9474 252.769 28.4473V48.9152C252.769 49.5734 252.235 50.1069 251.577 50.1069H244.655Z" fill="#373737"/>
<path d="M41.5164 47.1876C40.1992 48.3204 38.1958 48.1864 37.0611 46.871C36.1007 45.7576 35.0589 44.4998 34.1873 43.2641C32.6242 41.048 33.6453 38.4226 35.2876 36.2645C36.0508 35.2615 36.6926 34.1462 37.2066 32.8119C38.03 30.8369 38.2442 28.7921 37.8491 26.6774C37.4344 24.5399 36.4932 22.6178 35.0253 20.911C33.5966 19.2498 31.884 18.1098 29.8875 17.4911C27.9144 16.8523 25.884 16.7379 23.7961 17.1479C21.7315 17.5379 19.8575 18.4568 18.1741 19.9046C16.4906 21.3525 15.2899 23.0779 14.572 25.0809C13.8775 27.0639 13.6984 29.0785 14.0348 31.125C14.1989 32.1237 14.4932 33.0766 14.9175 33.9836C15.6754 35.6035 15.5833 37.6319 14.2274 38.798C12.8715 39.9641 10.7927 39.8246 9.88032 38.2864C8.7969 36.46 8.08213 34.493 7.73602 32.3853C7.21761 29.2286 7.49384 26.1208 8.56471 23.0621C9.65895 19.9832 11.4921 17.3377 14.064 15.1257C16.6594 12.8936 19.5494 11.477 22.734 10.876C25.9419 10.2548 29.0677 10.4367 32.1113 11.4217C35.155 12.4066 37.763 14.1621 39.9354 16.6881C42.147 19.2596 43.5493 22.1907 44.1421 25.4813C44.7154 28.7492 44.3886 31.94 43.1617 35.0539C42.4939 36.7367 40.3521 38.3227 40.6292 40.0638C40.7665 40.9262 41.2777 41.8383 41.9038 42.7079C42.9188 44.1178 42.8335 46.0548 41.5164 47.1876Z" fill="#8EE4FF"/>
</svg>
