<svg width="32" height="32" viewBox="0 0 32 32" fill="none" xmlns="http://www.w3.org/2000/svg">
<path d="M16.7333 9.15V2H11.7833C10.062 2 8.66667 3.39538 8.66667 5.11667V23.0833C8.66667 24.8046 10.062 26.2 11.7833 26.2H23.8833C25.6046 26.2 27 24.8046 27 23.0833V12.2667H19.85C18.1287 12.2667 16.7333 10.8713 16.7333 9.15ZM18.5667 9.15V2.36667L26.6333 10.4333H19.85C19.1412 10.4333 18.5667 9.85877 18.5667 9.15ZM5 8.38002C5 7.14898 5.75833 6.09506 6.83333 5.65991V23.0834C6.83333 25.8172 9.04952 28.0334 11.7833 28.0334H23.3401C22.905 29.1084 21.851 29.8667 20.62 29.8667H11.7833C8.037 29.8667 5 26.8297 5 23.0834V8.38002Z" fill="#242424"/>
</svg>
