<svg width="26" height="28" viewBox="0 0 26 28" fill="none" xmlns="http://www.w3.org/2000/svg">
<path d="M10.5 4.5V5H15.5V4.5C15.5 3.11929 14.3807 2 13 2C11.6193 2 10.5 3.11929 10.5 4.5ZM8.5 5V4.5C8.5 2.01472 10.5147 0 13 0C15.4853 0 17.5 2.01472 17.5 4.5V5H25C25.5523 5 26 5.44772 26 6C26 6.55228 25.5523 7 25 7H23.4922L21.5988 23.5677C21.3102 26.0931 19.1729 28 16.6311 28H9.3689C6.82714 28 4.68984 26.0931 4.40123 23.5677L2.50778 7H1C0.447715 7 0 6.55228 0 6C0 5.44772 0.447715 5 1 5H8.5ZM11 11.5C11 10.9477 10.5523 10.5 10 10.5C9.44771 10.5 9 10.9477 9 11.5V21.5C9 22.0523 9.44771 22.5 10 22.5C10.5523 22.5 11 22.0523 11 21.5V11.5ZM16 10.5C15.4477 10.5 15 10.9477 15 11.5V21.5C15 22.0523 15.4477 22.5 16 22.5C16.5523 22.5 17 22.0523 17 21.5V11.5C17 10.9477 16.5523 10.5 16 10.5Z" fill="#FF6600"/>
</svg>
