<svg width="23" height="22" viewBox="0 0 23 22" fill="none" xmlns="http://www.w3.org/2000/svg">
<path d="M2.7002 8.5C2.7002 4.91015 5.61034 2 9.2002 2C12.79 2 15.7002 4.91015 15.7002 8.5C15.7002 12.0899 12.79 15 9.2002 15C5.61034 15 2.7002 12.0899 2.7002 8.5ZM9.2002 0C4.50577 0 0.700195 3.80558 0.700195 8.5C0.700195 13.1944 4.50577 17 9.2002 17C11.1871 17 13.0147 16.3183 14.462 15.176L20.9931 21.7071C21.3836 22.0976 22.0168 22.0976 22.4073 21.7071C22.7978 21.3166 22.7978 20.6834 22.4073 20.2929L15.8762 13.7618C17.0185 12.3145 17.7002 10.4869 17.7002 8.5C17.7002 3.80558 13.8946 0 9.2002 0Z" fill="#5E5D5D"/>
</svg>
