<svg width="27" height="28" viewBox="0 0 27 28" fill="none" xmlns="http://www.w3.org/2000/svg">
<path d="M11 4.5V5H16V4.5C16 3.11929 14.8807 2 13.5 2C12.1193 2 11 3.11929 11 4.5ZM9 5V4.5C9 2.01472 11.0147 0 13.5 0C15.9853 0 18 2.01472 18 4.5V5H25.5C26.0523 5 26.5 5.44772 26.5 6C26.5 6.55228 26.0523 7 25.5 7H23.9922L22.0988 23.5677C21.8102 26.0931 19.6729 28 17.1311 28H9.8689C7.32714 28 5.18984 26.0931 4.90123 23.5677L3.00778 7H1.5C0.947715 7 0.5 6.55228 0.5 6C0.5 5.44772 0.947715 5 1.5 5H9ZM11.5 11.5C11.5 10.9477 11.0523 10.5 10.5 10.5C9.94771 10.5 9.5 10.9477 9.5 11.5V21.5C9.5 22.0523 9.94771 22.5 10.5 22.5C11.0523 22.5 11.5 22.0523 11.5 21.5V11.5ZM16.5 10.5C15.9477 10.5 15.5 10.9477 15.5 11.5V21.5C15.5 22.0523 15.9477 22.5 16.5 22.5C17.0523 22.5 17.5 22.0523 17.5 21.5V11.5C17.5 10.9477 17.0523 10.5 16.5 10.5Z" fill="#FF6600"/>
</svg>
