<svg width="317" height="76" viewBox="0 0 317 76" fill="none" xmlns="http://www.w3.org/2000/svg">
<path d="M8.90234 41.5L13.9023 52.5V53.5H36.9023L38.4023 48.5L41.4023 43.5L46.9023 38L48.4023 32V23L46.9023 16.5L41.4023 9L34.4023 4L26.9023 2.5L19.9023 3.5L9.90234 7.5L4.40234 16L2.40234 23.5L2.90234 33L8.90234 41.5Z" fill="#FFD465" stroke="black"/>
<path d="M29.4023 72L24.4023 73L19.4023 70.5L15.4023 67L16.9023 66L25.9023 65.5L34.4023 66L35.9023 67L29.4023 72Z" fill="#7A7A7A" stroke="black"/>
<path d="M14.4023 55H36.4023V64H14.4023V55Z" fill="#9A9A9A"/>
<path d="M45.0996 9.3672C40.3262 3.5117 33.1936 0.0781 25.6386 0C18.0839 0.078125 10.9506 3.5117 6.17762 9.3672C1.22451 15.1602 -0.908284 22.8512 0.357316 30.3672C0.943256 33.5625 2.12681 36.6172 3.84951 39.3672C4.81826 40.8399 5.91591 42.2188 7.12681 43.5C8.02525 44.4492 8.86122 45.4492 9.63852 46.5C11.1268 48.6289 11.8768 51.1836 11.7791 53.7773V64.9883C11.7635 65.1094 11.7635 65.2305 11.7791 65.3477V65.4492C11.7986 65.5352 11.8299 65.6211 11.869 65.6992C13.119 68.1992 16.2088 70.9297 21.0409 73.8281H21.037C23.8104 75.4883 27.2675 75.4883 30.037 73.8281C34.8651 70.9297 37.9589 68.1992 39.2089 65.6992C39.2479 65.6211 39.2792 65.5352 39.2987 65.4492V65.3477C39.3143 65.2305 39.3143 65.1094 39.2987 64.9883V53.7773C39.2596 51.1601 40.08 48.6015 41.6385 46.5C42.4158 45.4492 43.2518 44.4492 44.1502 43.5C45.3611 42.2188 46.4588 40.8398 47.4275 39.3672C49.1502 36.6172 50.3337 33.5625 50.9197 30.3672C52.1853 22.8516 50.0527 15.1602 45.0996 9.3672ZM25.6386 55.4492H36.1586V57.7109L27.5102 57.707C26.6352 57.7773 25.9594 58.5078 25.9594 59.3828C25.9594 60.2617 26.6352 60.9922 27.5102 61.0586H36.1586V63.3203H15.1586V55.4492L25.6386 55.4492ZM25.6386 45.7695C23.8183 43.7695 21.2089 40.2109 21.2089 37.3398C21.2089 33.6289 22.8691 31.4179 25.6386 31.4179C28.4081 31.4179 30.0683 33.6288 30.0683 37.3398C30.0683 40.207 27.4589 43.7382 25.6386 45.7695ZM25.6386 50.5L27.2988 52.1094H23.9785L25.6386 50.5ZM28.4277 71.0081C26.7129 72.0393 24.5644 72.0393 22.8496 71.0081C20.6973 69.7776 18.6855 68.3206 16.8496 66.6604H34.3496C32.5371 68.3166 30.5527 69.7737 28.4277 71.0081ZM47.6387 29.789C47.1387 32.5429 46.1192 35.1796 44.6387 37.5585C43.7481 38.871 42.7442 40.1054 41.6387 41.2499C40.6661 42.2968 39.752 43.4022 38.9082 44.5585C37.3379 46.7733 36.416 49.3788 36.2402 52.0897H32.1074L27.998 48.0897C29.9199 45.9803 33.4082 41.5506 33.4082 37.2887C33.4082 30.8903 29.5098 28.027 25.6387 28.027C21.7676 28.027 17.8692 30.8864 17.8692 37.2887C17.8692 41.5504 21.3575 45.9801 23.2794 48.0897L19.17 52.0897H15.0372C14.8614 49.3788 13.9395 46.7733 12.3692 44.5585C11.5255 43.4023 10.6114 42.2968 9.63871 41.2499C8.53321 40.1054 7.52931 38.871 6.63871 37.5585C2.89261 31.3241 2.43562 23.6485 5.41212 17.0115C8.38482 10.3748 14.416 5.6135 21.5641 4.2575C28.7086 2.902 36.0681 5.12859 41.2631 10.2184C46.4623 15.3082 48.8418 22.617 47.6387 29.789Z" fill="black"/>
<path d="M112.773 73.4264C111.325 74.3929 109.405 74.2438 108.124 73.0655L100.763 66.2942C100.289 65.8206 96.5495 68.9776 94.0969 69.8275C91.6685 70.6774 89.1065 71.1024 86.411 71.1024C82.9627 71.1024 79.7209 70.4225 76.6854 69.0626C73.6499 67.6784 70.9787 65.7843 68.6718 63.3802C66.3648 60.9518 64.5557 58.1349 63.2443 54.9294C61.933 51.724 61.2773 48.2999 61.2773 44.6574C61.2773 41.0148 61.933 37.6029 63.2443 34.4218C64.5557 31.2163 66.3648 28.3994 68.6718 25.971C70.9787 23.5426 73.6499 21.6485 76.6854 20.2886C79.7209 18.9044 82.9627 18.2124 86.411 18.2124C89.8836 18.2124 93.1376 18.9044 96.1731 20.2886C99.2086 21.6485 101.88 23.5426 104.187 25.971C106.494 28.3994 108.291 31.2163 109.578 34.4218C110.889 37.6029 111.545 41.0148 111.545 44.6574C111.545 47.4986 111.132 50.2062 110.306 52.7803C109.481 55.3301 106.172 58.9908 106.919 59.8469L113.581 67.881C115.01 69.6035 114.634 72.1837 112.773 73.4264V73.4264ZM86.411 62.2145C87.8195 62.2145 89.2037 62.0081 90.5636 61.5953C91.9235 61.1582 94.5727 59.4758 95.711 58.3375C95.711 58.3375 97.9644 55.9297 98.8413 54.9226C99.4149 54.2637 100.289 53.2174 100.289 53.2174C101.066 51.9546 101.649 50.5948 102.038 49.1377C102.45 47.6807 102.657 46.1873 102.657 44.6574C102.657 42.229 102.232 39.9585 101.382 37.8458C100.532 35.7331 99.3543 33.8754 97.8487 32.2727C96.3674 30.6456 94.6432 29.3829 92.6763 28.4844C90.7336 27.5616 88.6451 27.1002 86.411 27.1002C84.1769 27.1002 82.0764 27.5616 80.1094 28.4844C78.1424 29.4072 76.4061 30.6821 74.9005 32.3091C73.4192 33.9118 72.2536 35.7695 71.4037 37.8822C70.578 39.9949 70.1652 42.2533 70.1652 44.6574C70.1652 47.0615 70.5902 49.332 71.4401 51.469C72.29 53.5817 73.4557 55.4515 74.937 57.0785C76.4426 58.6812 78.1667 59.944 80.1094 60.8668C82.0764 61.7653 84.1769 62.2145 86.411 62.2145Z" fill="black"/>
<path d="M116.693 50.9591V29.1492C116.693 28.5205 117.202 28.0109 117.831 28.0109H124.442C125.071 28.0109 125.581 28.5205 125.581 29.1492V48.6278C125.581 50.0606 125.933 51.3719 126.637 52.5618C127.341 53.7274 128.276 54.6623 129.442 55.3666C130.632 56.0465 131.931 56.3865 133.339 56.3865C134.796 56.3865 136.108 56.0465 137.273 55.3666C138.439 54.6623 139.374 53.7274 140.078 52.5618C140.782 51.3719 141.134 50.0606 141.134 48.6278V34.8407C141.134 31.0687 144.192 28.0109 147.964 28.0109H148.885C149.513 28.0109 150.023 28.5198 150.023 29.1481L150.057 63.2971C150.058 63.9262 149.548 64.4365 148.919 64.4365H142.158C141.659 64.4365 141.295 63.9642 141.422 63.4814V63.4814C141.621 62.7223 140.532 62.0329 139.876 62.4641C138.788 63.1793 137.601 63.8278 136.654 64.2544C134.93 65.0072 133.084 65.3836 131.117 65.3836C128.47 65.3836 126.054 64.7401 123.869 63.4531C121.683 62.1417 119.935 60.4054 118.623 58.2442C117.336 56.0586 116.693 53.6303 116.693 50.9591Z" fill="black"/>
<path d="M172.808 65.3836C169.457 65.3836 166.397 64.5215 163.629 62.7974C160.885 61.0732 158.687 58.7541 157.036 55.8401C155.409 52.926 154.595 49.7084 154.595 46.1873C154.595 43.5404 155.069 41.0634 156.016 38.7565C156.963 36.4252 158.262 34.3854 159.913 32.637C161.589 30.8642 163.532 29.4801 165.742 28.4844C167.951 27.4888 170.307 26.991 172.808 26.991C175.649 26.991 178.248 27.5981 180.603 28.8123C182.983 30.0022 184.999 31.6413 186.65 33.7297C188.301 35.8181 189.503 38.1979 190.256 40.8691C190.924 43.2391 191.133 45.7045 190.883 48.2656C190.828 48.8299 190.345 49.247 189.778 49.247H165.277C164.648 49.247 164.176 49.7615 164.401 50.3487C164.725 51.1957 165.297 52.1978 165.814 52.926C166.592 53.9945 167.575 54.8566 168.765 55.5123C169.955 56.1436 171.303 56.4715 172.808 56.4958C174.362 56.52 175.771 56.1558 177.034 55.403V55.403C179.356 54.0007 182 52.6806 184.642 53.2961L189.102 54.3348C189.209 54.3597 189.266 54.4768 189.219 54.5763C187.739 57.7185 185.559 60.3011 182.68 62.3239C179.741 64.3637 176.451 65.3836 172.808 65.3836ZM164.226 41.2274C163.986 41.9109 164.53 42.5812 165.254 42.5812H180.403C181.114 42.5812 181.655 41.9333 181.43 41.2591C181.116 40.3195 180.658 39.4489 180.057 38.6472C179.207 37.4573 178.151 36.5102 176.888 35.806C175.625 35.1018 174.265 34.7496 172.808 34.7496C171.351 34.7496 170.003 35.1018 168.765 35.806C167.526 36.4859 166.47 37.4209 165.596 38.6108C165.014 39.409 164.557 40.2812 164.226 41.2274Z" fill="black"/>
<path d="M207.723 65.0922C205.829 64.9708 203.995 64.5944 202.222 63.963C200.474 63.3073 198.92 62.421 197.56 61.3039C196.25 60.228 195.233 58.9493 194.509 57.4679C194.464 57.3749 194.506 57.2634 194.601 57.2228L199.978 54.9258C201.097 54.4478 202.425 54.8689 203.352 55.658V55.658C204.007 56.1922 204.784 56.6415 205.683 57.0057C206.606 57.37 207.613 57.5521 208.706 57.5521C209.629 57.5521 210.503 57.4307 211.329 57.1878C212.179 56.9207 212.859 56.52 213.369 55.9858C213.903 55.4516 214.17 54.7595 214.17 53.9095C214.17 53.011 213.854 52.3189 213.223 51.8333C212.616 51.3233 211.839 50.9469 210.892 50.7041C209.969 50.437 209.07 50.1941 208.196 49.9756C205.889 49.5142 203.74 48.7978 201.749 47.8265C199.782 46.8551 198.191 45.6045 196.977 44.0746C195.787 42.5204 195.192 40.6506 195.192 38.4651C195.192 36.061 195.824 33.9847 197.086 32.2363C198.373 30.4878 200.037 29.1401 202.077 28.193C204.141 27.246 206.363 26.7724 208.743 26.7724C211.632 26.7724 214.279 27.3795 216.683 28.5937C219.06 29.7583 220.948 31.3998 222.348 33.5182C222.398 33.5936 222.374 33.6951 222.296 33.741L217.263 36.714C216.24 37.318 214.915 36.9486 213.988 36.2067V36.2067C213.381 35.6967 212.689 35.2839 211.912 34.9682C211.135 34.6282 210.321 34.434 209.471 34.3854C208.378 34.3368 207.383 34.434 206.484 34.6768C205.586 34.9196 204.857 35.3325 204.299 35.9153C203.764 36.4981 203.497 37.2752 203.497 38.2465C203.497 39.1693 203.862 39.8614 204.59 40.3228C205.319 40.7599 206.193 41.0998 207.213 41.3427C208.257 41.5855 209.253 41.8526 210.2 42.144C212.337 42.8483 214.34 43.7104 216.21 44.7303C218.104 45.7502 219.622 47.0008 220.763 48.4821C221.904 49.9634 222.451 51.7361 222.402 53.8003C222.402 56.1558 221.698 58.2199 220.29 59.9926C218.881 61.741 217.06 63.0767 214.826 63.9994C212.616 64.9222 210.248 65.2865 207.723 65.0922Z" fill="black"/>
<path d="M248.16 35.7605C248.16 36.3891 247.651 36.8988 247.022 36.8988H242.232C241.603 36.8988 241.094 37.4084 241.094 38.0371V63.2982C241.094 63.9269 240.584 64.4365 239.955 64.4365H233.344C232.716 64.4365 232.206 63.9269 232.206 63.2982V38.0371C232.206 37.4084 231.696 36.8988 231.068 36.8988H227.953C227.325 36.8988 226.815 36.3891 226.815 35.7605V29.1492C226.815 28.5205 227.325 28.0109 227.953 28.0109H231.068C231.696 28.0109 232.206 27.5013 232.206 26.8726V17.7115C232.206 17.0829 232.716 16.5732 233.344 16.5732H239.955C240.584 16.5732 241.094 17.0829 241.094 17.7115V26.8726C241.094 27.5013 241.603 28.0109 242.232 28.0109H247.022C247.651 28.0109 248.16 28.5205 248.16 29.1492V35.7605Z" fill="black"/>
<path d="M269.92 65.3836C266.568 65.3836 263.509 64.5215 260.74 62.7974C257.996 61.0732 255.799 58.7541 254.147 55.8401C252.52 52.926 251.707 49.7084 251.707 46.1873C251.707 43.5404 252.18 41.0634 253.127 38.7565C254.074 36.4252 255.374 34.3854 257.025 32.637C258.7 30.8642 260.643 29.4801 262.853 28.4844C265.063 27.4888 267.418 26.991 269.92 26.991C272.761 26.991 275.359 27.5981 277.715 28.8123C280.094 30.0022 282.11 31.6413 283.761 33.7297C285.413 35.8181 286.615 38.1979 287.367 40.8691C288.035 43.2391 288.244 45.7045 287.995 48.2656C287.94 48.8299 287.456 49.247 286.889 49.247H262.708C261.968 49.247 261.422 49.9458 261.691 50.6356C262.011 51.4551 262.423 52.2186 262.926 52.926C263.703 53.9945 264.686 54.8566 265.876 55.5123C267.066 56.1436 268.414 56.4715 269.92 56.4958C271.474 56.52 272.882 56.1558 274.145 55.403V55.403C276.467 54.0007 279.111 52.6806 281.754 53.2961L286.115 54.3119C286.273 54.3487 286.357 54.521 286.287 54.6673C284.808 57.7684 282.643 60.3206 279.791 62.3239C276.853 64.3637 273.562 65.3836 269.92 65.3836ZM261.337 41.2274C261.098 41.9109 261.641 42.5812 262.365 42.5812H277.514C278.225 42.5812 278.767 41.9333 278.541 41.2591C278.227 40.3195 277.77 39.4489 277.168 38.6472C276.318 37.4573 275.262 36.5102 273.999 35.806C272.736 35.1018 271.377 34.7496 269.92 34.7496C268.462 34.7496 267.115 35.1018 265.876 35.806C264.638 36.4859 263.581 37.4209 262.707 38.6108C262.125 39.409 261.668 40.2812 261.337 41.2274Z" fill="black"/>
<path d="M294.978 64.4365C294.349 64.4365 293.84 63.9276 293.839 63.2994L293.805 29.1503C293.804 28.5212 294.314 28.0109 294.943 28.0109H301.766C302.279 28.0109 302.696 28.4236 302.702 28.9365V28.9365C302.712 29.7782 303.782 30.2183 304.459 29.7174C305.284 29.1063 306.189 28.586 307.172 28.1566C308.896 27.3795 310.754 26.991 312.745 26.991C314.015 26.991 315.285 27.1666 316.555 27.5178C316.661 27.5472 316.718 27.6622 316.678 27.7648L314.287 33.8901C313.718 35.3489 312.053 35.9881 310.487 35.9881V35.9881C309.054 35.9881 307.743 36.3402 306.553 37.0445C305.387 37.7244 304.452 38.6593 303.748 39.8492C303.068 41.0149 302.728 42.314 302.728 43.7468V63.2982C302.728 63.9269 302.219 64.4365 301.59 64.4365H294.978Z" fill="black"/>
</svg>
