<svg width="35" height="35" viewBox="0 0 35 35" fill="none" xmlns="http://www.w3.org/2000/svg">
<path d="M22.75 35C23.7165 35 24.5 34.2165 24.5 33.25C24.5 32.2835 23.7165 31.5 22.75 31.5H8.16667C5.58934 31.5 3.5 29.4107 3.5 26.8333V8.16667C3.5 5.58934 5.58934 3.5 8.16667 3.5H22.75C23.7165 3.5 24.5 2.7165 24.5 1.75C24.5 0.783502 23.7165 0 22.75 0H8.16667C3.65634 0 0 3.65634 0 8.16667V26.8333C0 31.3437 3.65634 35 8.16667 35H22.75ZM25.063 8.63077C25.7732 7.97521 26.8803 8.0195 27.5359 8.72968L34.5359 16.313C35.1547 16.9834 35.1547 18.0166 34.5359 18.687L27.5359 26.2703C26.8803 26.9805 25.7732 27.0248 25.063 26.3692C24.3528 25.7137 24.3085 24.6065 24.9641 23.8964L29.253 19.25H11.0833C10.1168 19.25 9.33333 18.4665 9.33333 17.5C9.33333 16.5335 10.1168 15.75 11.0833 15.75H29.253L24.9641 11.1037C24.3085 10.3935 24.3528 9.28633 25.063 8.63077Z" fill="#242424"/>
</svg>
